<?xml version="1.0" encoding="utf-8"?>
<!-- Generated by IcoMoon.io -->
<!DOCTYPE svg PUBLIC "-//W3C//DTD SVG 1.1//EN" "http://www.w3.org/Graphics/SVG/1.1/DTD/svg11.dtd">
<svg version="1.1" xmlns="http://www.w3.org/2000/svg" xmlns:xlink="http://www.w3.org/1999/xlink" width="512" height="512" viewBox="0 0 512 512">
<g>
</g>
	<path d="M87.562 260.997c19.477 0.563 36.741 8.919 49.551 21.719-12.81 12.779-20.593 30.638-20.593 50.105 0 19.476 7.782 37.325 20.593 50.135-13.363 13.363-31.734 21.699-51.784 21.699-40.080 0-72.366-32.276-72.366-71.844 0-35.625 26.163-65.137 60.703-71.26v0.543c0 3.922 2.765 6.717 6.656 6.717 3.912 0 7.239-2.796 7.239-6.717 0-0.533 0-1.096 0-1.096v0zM80.323 128.482c-2.775 0-5.008 1.659-5.008 3.901v129.72c0 2.284 2.233 3.379 5.007 3.379v0c2.796 0 5.57-1.096 5.57-3.379v-129.72c0-2.243-2.775-3.901-5.57-3.901v0 0zM102.615 312.238c-1.68-6.676-4.465-11.704-8.356-15.043-4.444-2.796-10.025-4.434-16.722-4.434-7.793 0-13.927 2.181-17.808 6.103-3.912 4.464-5.581 9.502-5.581 14.5 0 4.423 1.116 8.336 3.349 12.216 2.233 3.338 7.209 7.824 15.575 12.257 6.134 3.922 10.035 6.123 11.715 7.803 1.648 1.096 2.222 2.775 2.222 4.444 0 1.116-0.573 2.796-2.222 3.922-1.116 1.659-2.775 2.243-5.017 2.243-2.775 0-5.007-1.116-7.23-3.358-2.233-1.68-3.349-4.464-3.922-7.803l-18.35 2.775c1.659 7.26 4.434 12.8 9.462 16.702 4.465 3.901 10.578 5.581 18.944 5.581 9.442 0 16.128-2.222 20.593-6.697 3.891-4.444 5.561-9.442 5.561-15.575 0-4.444-1.106-8.336-3.338-11.704-2.775-3.881-7.793-7.24-15.043-11.12-6.123-3.338-10.025-6.144-12.237-7.803-2.233-1.7-2.785-3.338-2.785-4.997 0-1.68 0.563-2.775 1.669-3.881 1.106-1.168 2.212-1.71 3.901-1.71 3.881 0 6.134 2.796 7.803 8.336l17.817-2.755zM197.253 260.997v0c0 3.901-3.328 7.24-7.26 7.24-3.308 0-6.113-2.765-6.646-6.144-33.977 5.581-60.15 35.103-60.15 70.718 0 39.557 32.307 71.844 72.407 71.844 29.501 0 55.112-17.817 66.253-43.418-14.5-13.384-23.368-32.317-23.368-52.88 0-10.599 1.659-20.060 5.53-28.416-12.247-11.704-28.928-18.381-46.766-18.944v0zM189.993 128.482v0c2.806 0 5.028 1.659 5.028 3.901v129.72c0 2.284-2.222 3.379-5.028 3.379v0c-2.765 0-4.987-1.096-4.987-3.379v-129.72c-0.010-2.243 2.222-3.901 4.987-3.901v0zM184.453 316.682l-16.148-3.318c2.232-13.384 11.694-20.603 28.406-20.603 6.666 0 11.704 1.075 16.138 2.745 3.911 2.263 6.677 4.485 7.803 7.281 1.679 3.318 2.232 7.24 2.232 12.216v32.317c0 8.919 1.679 16.118 4.444 21.135h-18.35c-0.563-2.222-1.679-4.464-2.243-7.219-2.243 2.765-4.997 4.997-8.366 6.676-3.338 1.639-7.209 2.222-11.131 2.222-5.56 0-10.558-1.68-15.042-5.581-4.464-3.901-6.666-8.899-6.666-15.575s2.212-11.704 5.571-15.575c3.901-3.358 10.025-6.144 18.361-8.356 6.697-1.116 11.714-2.765 15.606-4.464v-2.222c0-3.358-0.573-6.123-1.679-7.803-1.649-2.202-3.901-2.796-7.782-2.796-3.349 0-6.154 0.604-7.26 2.263-1.669 1.639-2.796 3.87-3.891 6.656v0zM205.056 332.278v7.24c0 5.56-1.116 10.025-2.775 12.779-2.243 2.816-5.028 3.942-8.919 3.942-2.786 0-5.571-1.116-7.23-2.816-1.679-1.639-2.786-3.881-2.786-6.676 0-1.659 0.542-3.318 1.659-4.976 1.126-1.68 2.232-2.243 3.338-2.775 1.106-0.563 3.911-1.7 8.909-3.379 0.553-0.553 3.358-1.659 7.803-3.338v0zM327.004 237.036c24.484 3.358 44.544 18.381 54.558 39.557-19.497 12.82-32.839 35.062-32.839 60.682 0 11.141 2.222 22.262 7.219 31.764-11.141 6.656-24.505 11.141-38.983 11.141-39.536 0-71.823-32.317-71.823-71.823 0-39.004 30.064-70.185 67.942-72.418 0.563 3.922 3.358 6.697 7.24 6.697 3.318 0 6.103-2.232 6.687-5.601v0zM320.317 102.882c-2.796 0-5.038 1.68-5.038 3.318v130.325c0 1.659 2.243 3.338 5.038 3.338v0c2.765 0 4.997-1.679 4.997-3.338v-130.325c0.010-1.638-2.233-3.318-4.997-3.318v0 0zM309.719 259.922v101.858h18.381v-101.858h-18.381zM431.125 131.256v0c2.775 0 4.997 1.679 4.997 3.358v130.284c0 1.659-2.222 3.338-4.997 3.338v0c-2.775 0-5.017-1.68-5.017-3.338v-130.284c-0.010-1.679 2.233-3.358 5.017-3.358v0zM437.801 266.025c-1.116 2.796-3.901 4.997-6.676 4.997-3.358 0-6.697-2.202-7.26-5.54-37.837 1.639-68.485 33.382-68.485 71.803 0 40.1 32.276 71.844 71.823 71.844 40.1 0 71.844-31.744 71.844-71.844-0.010-36.188-26.726-66.263-61.245-71.26v0zM458.937 341.76h-41.738c0 5.56 1.096 10.025 3.338 13.363 2.222 3.338 4.997 4.997 8.325 4.997 2.796 0 5.038-1.116 7.26-2.775 1.68-2.222 2.796-4.464 3.338-7.803l18.381 2.243c-1.096 6.676-3.881 11.663-8.356 16.138-4.997 4.464-11.12 6.656-19.476 6.656-6.697 0-12.8-1.075-16.702-3.318-4.464-2.222-7.803-6.697-10.599-12.257-2.775-5.581-3.881-12.8-3.881-21.156 0-13.916 2.775-23.941 8.325-30.638 5.601-6.656 12.841-10.005 22.303-10.005 6.123 0 11.141 1.659 15.575 4.464 4.464 2.775 7.824 7.24 10.599 12.779 2.222 6.144 3.318 12.82 3.318 21.719v5.591h-0.010zM440.576 329.502h-23.378c0.543-5.581 1.659-10.025 3.338-12.82 2.222-3.318 4.997-4.444 8.325-4.444 3.922 0 6.697 1.116 8.377 4.444 1.68 2.796 2.765 7.24 3.338 12.82z" fill="#FF2020" />
</svg>
